<?xml version="1.0" encoding="UTF-8" standalone="no"?>
<svg
   xmlns:dc="http://purl.org/dc/elements/1.1/"
   xmlns:cc="http://creativecommons.org/ns#"
   xmlns:rdf="http://www.w3.org/1999/02/22-rdf-syntax-ns#"
   xmlns:svg="http://www.w3.org/2000/svg"
   xmlns="http://www.w3.org/2000/svg"
   id="svg5570"
   version="1.1"
   viewBox="0 0 512 512"
   height="512mm"
   width="512mm">
  <defs
     id="defs5564">
    <clipPath
       id="clipPath416"
       clipPathUnits="userSpaceOnUse">
      <path
         id="path414"
         d="m 106.521,505.844 h 53.4 v -53.401 h -53.4 z" />
    </clipPath>
    <clipPath
       id="clipPath432"
       clipPathUnits="userSpaceOnUse">
      <path
         id="path430"
         d="m 107.103,505.263 h 53.4 v -53.401 h -53.4 z" />
    </clipPath>
    <clipPath
       id="clipPath452"
       clipPathUnits="userSpaceOnUse">
      <path
         id="path450"
         d="m 121.394,490.97 h 53.401 v -53.4 h -53.401 z" />
    </clipPath>
    <clipPath
       id="clipPath468"
       clipPathUnits="userSpaceOnUse">
      <path
         id="path466"
         d="m 121.976,490.39 h 53.4 v -53.401 h -53.4 z" />
    </clipPath>
    <clipPath
       id="clipPath488"
       clipPathUnits="userSpaceOnUse">
      <path
         id="path486"
         d="M 252.477,497.736 H 303.71 V 458.461 H 252.477 Z" />
    </clipPath>
    <clipPath
       id="clipPath516"
       clipPathUnits="userSpaceOnUse">
      <path
         id="path514"
         d="m 260.136,464.691 h 34.022 v -18.162 h -34.022 z" />
    </clipPath>
    <clipPath
       id="clipPath1186"
       clipPathUnits="userSpaceOnUse">
      <path
         id="path1184"
         d="m 371.012,489.894 h 13.025 v -36.841 h -13.025 z" />
    </clipPath>
    <clipPath
       id="clipPath1238"
       clipPathUnits="userSpaceOnUse">
      <path
         id="path1236"
         d="m 416.701,489.894 h 13.026 v -36.841 h -13.026 z" />
    </clipPath>
    <clipPath
       id="clipPath1290"
       clipPathUnits="userSpaceOnUse">
      <path
         id="path1288"
         d="m 381.949,500.831 h 36.84 v -13.025 h -36.84 z" />
    </clipPath>
    <clipPath
       id="clipPath1342"
       clipPathUnits="userSpaceOnUse">
      <path
         id="path1340"
         d="m 381.949,455.141 h 36.84 v -13.025 h -36.84 z" />
    </clipPath>
    <clipPath
       id="clipPath1378"
       clipPathUnits="userSpaceOnUse">
      <path
         id="path1376"
         d="M 377.82,494.007 H 422.9 V 448.929 H 377.82 Z" />
    </clipPath>
    <clipPath
       id="clipPath1398"
       clipPathUnits="userSpaceOnUse">
      <path
         id="path1396"
         d="m 372.796,499.034 h 55.132 v -28.96 h -55.132 z" />
    </clipPath>
    <clipPath
       id="clipPath1422"
       clipPathUnits="userSpaceOnUse">
      <path
         id="path1420"
         d="m 390.837,480.992 h 19.048 v -10.918 h -19.048 z" />
    </clipPath>
    <clipPath
       id="clipPath2348"
       clipPathUnits="userSpaceOnUse">
      <path
         id="path2346"
         d="m 629.877,480.125 h 17.658 V 462.47 h -17.658 z" />
    </clipPath>
    <clipPath
       id="clipPath2364"
       clipPathUnits="userSpaceOnUse">
      <path
         id="path2362"
         d="m 645.464,464.54 h 17.654 v -17.656 h -17.654 z" />
    </clipPath>
    <clipPath
       id="clipPath2404"
       clipPathUnits="userSpaceOnUse">
      <path
         id="path2402"
         d="m 671.973,484.672 h 11.481 v -11.481 h -11.481 z" />
    </clipPath>
    <clipPath
       id="clipPath2420"
       clipPathUnits="userSpaceOnUse">
      <path
         id="path2418"
         d="m 682.108,494.806 h 11.481 v -11.479 h -11.481 z" />
    </clipPath>
    <clipPath
       id="clipPath2076"
       clipPathUnits="userSpaceOnUse">
      <path
         id="path2074"
         d="m 111.314,382.691 h 49.848 v -7.75 h -49.848 z" />
    </clipPath>
    <clipPath
       id="clipPath2096"
       clipPathUnits="userSpaceOnUse">
      <path
         id="path2094"
         d="m 107.858,373.707 h 56.759 v -3.637 h -56.759 z" />
    </clipPath>
    <clipPath
       id="clipPath2112"
       clipPathUnits="userSpaceOnUse">
      <path
         id="path2110"
         d="m 132.422,358.392 h 29.332 v -21.443 h -29.332 z" />
    </clipPath>
    <clipPath
       id="clipPath2140"
       clipPathUnits="userSpaceOnUse">
      <path
         id="path2138"
         d="m 140.822,357.173 h 19.79 v -19.789 h -19.79 z" />
    </clipPath>
    <clipPath
       id="clipPath2156"
       clipPathUnits="userSpaceOnUse">
      <path
         id="path2154"
         d="m 140.822,357.173 h 17.379 v -17.375 h -17.379 z" />
    </clipPath>
    <clipPath
       id="clipPath2176"
       clipPathUnits="userSpaceOnUse">
      <path
         id="path2174"
         d="m 145.11,344.851 h 3.8 v -3.797 h -3.8 z" />
    </clipPath>
    <clipPath
       id="clipPath2192"
       clipPathUnits="userSpaceOnUse">
      <path
         id="path2190"
         d="m 151.674,354.583 h 6.273 v -6.275 h -6.273 z" />
    </clipPath>
    <clipPath
       id="clipPath2448"
       clipPathUnits="userSpaceOnUse">
      <path
         id="path2446"
         d="m 242.236,390.165 h 56.261 v -4.573 h -56.261 z" />
    </clipPath>
    <clipPath
       id="clipPath2464"
       clipPathUnits="userSpaceOnUse">
      <path
         id="path2462"
         d="m 250.983,390.165 h 15.954 v -15.954 h -15.954 z" />
    </clipPath>
    <clipPath
       id="clipPath2478"
       clipPathUnits="userSpaceOnUse">
      <path
         id="path2476"
         d="m 289.59,390.165 h 8.907 v -15.954 h -8.907 z" />
    </clipPath>
    <clipPath
       id="clipPath2502"
       clipPathUnits="userSpaceOnUse">
      <path
         id="path2500"
         d="m 242.236,370.165 h 56.261 v -4.573 h -56.261 z" />
    </clipPath>
    <clipPath
       id="clipPath2518"
       clipPathUnits="userSpaceOnUse">
      <path
         id="path2516"
         d="m 250.983,370.165 h 15.954 v -15.954 h -15.954 z" />
    </clipPath>
    <clipPath
       id="clipPath2532"
       clipPathUnits="userSpaceOnUse">
      <path
         id="path2530"
         d="m 289.59,370.165 h 8.907 v -15.954 h -8.907 z" />
    </clipPath>
    <clipPath
       id="clipPath2556"
       clipPathUnits="userSpaceOnUse">
      <path
         id="path2554"
         d="m 242.236,350.165 h 56.261 v -4.573 h -56.261 z" />
    </clipPath>
    <clipPath
       id="clipPath2572"
       clipPathUnits="userSpaceOnUse">
      <path
         id="path2570"
         d="m 250.983,350.165 h 15.954 v -15.954 h -15.954 z" />
    </clipPath>
    <clipPath
       id="clipPath2586"
       clipPathUnits="userSpaceOnUse">
      <path
         id="path2584"
         d="m 289.59,350.165 h 8.907 v -15.954 h -8.907 z" />
    </clipPath>
    <clipPath
       id="clipPath2606"
       clipPathUnits="userSpaceOnUse">
      <path
         id="path2604"
         d="m 281.489,396.801 h 28.519 v -36.579 h -28.519 z" />
    </clipPath>
    <clipPath
       id="clipPath2622"
       clipPathUnits="userSpaceOnUse">
      <path
         id="path2620"
         d="m 283.593,399.946 h 12.931 v -7.461 h -12.931 z" />
    </clipPath>
    <clipPath
       id="clipPath2638"
       clipPathUnits="userSpaceOnUse">
      <path
         id="path2636"
         d="m 286.668,374.432 h 8.201 v -5.317 h -8.201 z" />
    </clipPath>
    <clipPath
       id="clipPath2024"
       clipPathUnits="userSpaceOnUse">
      <path
         id="path2022"
         d="m 394.441,370.984 h 11.848 v -6.516 h -11.848 z" />
    </clipPath>
    <clipPath
       id="clipPath2040"
       clipPathUnits="userSpaceOnUse">
      <path
         id="path2038"
         d="m 396.527,375.613 h 7.676 v -3.924 h -7.676 z" />
    </clipPath>
  </defs>
  <metadata
     id="metadata5567">
    <rdf:RDF>
      <cc:Work
         rdf:about="">
        <dc:format>image/svg+xml</dc:format>
        <dc:type
           rdf:resource="http://purl.org/dc/dcmitype/StillImage" />
        <dc:title></dc:title>
      </cc:Work>
    </rdf:RDF>
  </metadata>
  <g
     transform="translate(0,215)"
     id="layer1">
    <g
       style="stroke-width:0.05060491"
       id="g6171"
       transform="matrix(6.9712169,0,0,-6.9712169,-724.48669,3324.4963)">
      <g
         style="stroke-width:0.00257821"
         id="g6546"
         transform="matrix(0.99326799,0,0,0.99326799,-257.66384,111.96145)">
        <g
           style="stroke-width:0.00257821"
           id="g1982"
           transform="translate(394.998,359.8745)">
          <path
             d="M 0,0 C -0.076,0.246 0.205,0.693 0.349,0.896 0.492,1.098 0.818,1.508 1.076,1.521 1.334,1.533 13.683,-6.607 13.992,-6.824 14.608,-7.26 12.85,-9.842 12.188,-9.377 11.879,-9.156 0.075,-0.25 0,0"
             style="fill:#dce2e9;fill-opacity:1;fill-rule:nonzero;stroke:none;stroke-width:0.00257821"
             id="path1984" />
        </g>
        <g
           style="stroke-width:0.00257821"
           id="g1986"
           transform="translate(405.7314,359.8745)">
          <path
             d="m 0,0 c 0.075,0.246 -0.204,0.693 -0.349,0.896 -0.142,0.202 -0.468,0.612 -0.726,0.625 -0.258,0.012 -12.608,-8.128 -12.916,-8.345 -0.617,-0.436 1.142,-3.018 1.803,-2.553 C -11.88,-9.156 -0.075,-0.25 0,0"
             style="fill:#dce2e9;fill-opacity:1;fill-rule:nonzero;stroke:none;stroke-width:0.00257821"
             id="path1988" />
        </g>
        <g
           style="stroke-width:0.00257821"
           id="g1990"
           transform="translate(401.6211,370.355)">
          <path
             d="M 0,0 C -0.094,0.344 -0.747,0.652 -1.062,0.781 -1.379,0.912 -2.06,1.15 -2.368,0.975 -2.676,0.799 -20.236,-40.922 -20.434,-41.404 c -0.394,-0.959 3.546,-2.66 3.969,-1.631 C -16.267,-42.555 0.096,-0.342 0,0"
             style="fill:#dce2e9;fill-opacity:1;fill-rule:nonzero;stroke:none;stroke-width:0.00257821"
             id="path1992" />
        </g>
        <g
           style="stroke-width:0.00257821"
           id="g1994"
           transform="translate(399.1074,370.355)">
          <path
             d="M 0,0 C 0.096,0.344 0.748,0.652 1.064,0.781 1.38,0.912 2.061,1.15 2.369,0.975 2.678,0.799 20.236,-40.922 20.435,-41.404 c 0.394,-0.959 -3.546,-2.66 -3.969,-1.631 C 16.268,-42.555 -0.096,-0.342 0,0"
             style="fill:#dce2e9;fill-opacity:1;fill-rule:nonzero;stroke:none;stroke-width:0.00257821"
             id="path1996" />
        </g>
        <g
           style="stroke-width:0.00257821"
           id="g1998"
           transform="translate(412.8076,338.8862)">
          <path
             d="m 0,0 c 0.171,0.258 -0.003,0.865 -0.101,1.146 -0.095,0.28 -0.334,0.862 -0.626,0.963 -0.293,0.1 -28.056,-8.912 -28.485,-9.058 -0.855,-0.295 0.305,-3.852 1.219,-3.537 C -27.563,-10.336 -0.169,-0.262 0,0"
             style="fill:#dce2e9;fill-opacity:1;fill-rule:nonzero;stroke:none;stroke-width:0.00257821"
             id="path2000" />
        </g>
        <g
           style="stroke-width:0.00257821"
           id="g2002"
           transform="translate(387.9219,338.8862)">
          <path
             d="m 0,0 c -0.17,0.258 0.002,0.865 0.101,1.146 0.096,0.28 0.334,0.862 0.626,0.963 0.293,0.1 28.056,-8.912 28.485,-9.058 0.854,-0.295 -0.304,-3.852 -1.22,-3.537 C 27.562,-10.336 0.17,-0.262 0,0"
             style="fill:#dce2e9;fill-opacity:1;fill-rule:nonzero;stroke:none;stroke-width:0.00257821"
             id="path2004" />
        </g>
        <g
           style="stroke-width:0.00257821"
           id="g2006"
           transform="translate(409.8096,350.2163)">
          <path
             d="M 0,0 C 0.138,0.277 -0.107,0.859 -0.239,1.125 -0.368,1.393 -0.675,1.941 -0.977,2.004 -1.279,2.07 -21,-6.748 -21.408,-6.945 c -0.813,-0.397 0.768,-3.787 1.638,-3.366 C -19.36,-10.109 -0.137,-0.279 0,0"
             style="fill:#dce2e9;fill-opacity:1;fill-rule:nonzero;stroke:none;stroke-width:0.00257821"
             id="path2008" />
        </g>
        <g
           style="stroke-width:0.00257821"
           id="g2010"
           transform="translate(390.9199,350.2163)">
          <path
             d="M 0,0 C -0.138,0.277 0.107,0.859 0.239,1.125 0.368,1.393 0.675,1.941 0.977,2.004 1.279,2.07 21,-6.748 21.408,-6.945 22.221,-7.342 20.64,-10.732 19.77,-10.311 19.36,-10.109 0.137,-0.279 0,0"
             style="fill:#dce2e9;fill-opacity:1;fill-rule:nonzero;stroke:none;stroke-width:0.00257821"
             id="path2012" />
        </g>
        <g
           style="stroke-width:0.00257821"
           id="g2014"
           transform="translate(406.2891,370.3921)">
          <path
             d="m 0,0 c 0,-3.271 -2.652,-5.924 -5.924,-5.924 -3.271,0 -5.924,2.653 -5.924,5.924 0,3.271 2.653,5.924 5.924,5.924 C -2.652,5.924 0,3.271 0,0"
             style="fill:#5a6271;fill-opacity:1;fill-rule:nonzero;stroke:none;stroke-width:0.00257821"
             id="path2016" />
        </g>
        <g
           style="stroke-width:0.00257821"
           id="g2018">
          <g
             style="stroke-width:0.00257821"
             id="g2020" />
          <g
             style="stroke-width:0.00257821"
             id="g2032">
            <g
               clip-path="url(#clipPath2024)"
               id="g2030"
               style="opacity:0.19999701;stroke-width:0.00257821">
              <g
                 style="stroke-width:0.00257821"
                 transform="translate(400.3652,365.6519)"
                 id="g2028">
                <path
                   d="M 0,0 C -3.072,0 -5.598,2.34 -5.895,5.332 -5.914,5.137 -5.924,4.939 -5.924,4.74 c 0,-3.271 2.653,-5.924 5.924,-5.924 3.271,0 5.924,2.653 5.924,5.924 0,0.199 -0.011,0.397 -0.029,0.592 C 5.597,2.34 3.071,0 0,0"
                   style="fill:#5a6271;fill-opacity:1;fill-rule:nonzero;stroke:none;stroke-width:0.00257821"
                   id="path2026" />
              </g>
            </g>
          </g>
        </g>
        <g
           style="stroke-width:0.00257821"
           id="g2034">
          <g
             style="stroke-width:0.00257821"
             id="g2036" />
          <g
             style="stroke-width:0.00257821"
             id="g2048">
            <g
               clip-path="url(#clipPath2040)"
               id="g2046"
               style="opacity:0.80000299;stroke-width:0.00257821">
              <g
                 style="stroke-width:0.00257821"
                 transform="translate(404.2031,373.6499)"
                 id="g2044">
                <path
                   d="m 0,0 c 0,-1.084 -1.719,-1.961 -3.838,-1.961 -2.119,0 -3.838,0.877 -3.838,1.961 0,1.084 1.719,1.963 3.838,1.963 C -1.719,1.963 0,1.084 0,0"
                   style="fill:#5a6271;fill-opacity:1;fill-rule:nonzero;stroke:none;stroke-width:0.00257821"
                   id="path2042" />
              </g>
            </g>
          </g>
        </g>
        <g
           style="stroke-width:0.00257821"
           id="g2050"
           transform="translate(409.0693,361.3647)">
          <path
             d="m 0,0 c -0.349,0 -0.697,0.121 -0.981,0.367 -0.626,0.541 -0.695,1.488 -0.153,2.115 1.572,1.817 2.438,4.141 2.438,6.545 0,5.518 -4.491,10.008 -10.008,10.008 -5.52,0 -10.008,-4.49 -10.008,-10.008 0,-2.404 0.864,-4.728 2.435,-6.543 0.542,-0.627 0.473,-1.574 -0.154,-2.117 -0.627,-0.541 -1.574,-0.472 -2.115,0.154 -2.042,2.36 -3.166,5.381 -3.166,8.506 0,7.172 5.835,13.008 13.008,13.008 7.172,0 13.008,-5.836 13.008,-13.008 C 4.304,5.9 3.178,2.879 1.135,0.52 0.838,0.176 0.42,0 0,0"
             style="fill:#ffc52f;fill-opacity:1;fill-rule:nonzero;stroke:none;stroke-width:0.00257821"
             id="path2052" />
        </g>
        <g
           style="stroke-width:0.00257821"
           id="g2054"
           transform="translate(389.4785,355.0854)">
          <path
             d="m 0,0 c -0.322,0 -0.646,0.102 -0.919,0.314 -4.749,3.684 -7.472,9.239 -7.472,15.241 0,10.629 8.648,19.277 19.278,19.277 10.629,0 19.276,-8.648 19.276,-19.277 0,-6.002 -2.724,-11.559 -7.472,-15.241 -0.654,-0.507 -1.596,-0.39 -2.103,0.266 -0.508,0.654 -0.389,1.598 0.266,2.106 4.009,3.109 6.309,7.8 6.309,12.869 0,8.974 -7.302,16.277 -16.276,16.277 -8.976,0 -16.278,-7.303 -16.278,-16.277 0,-5.069 2.301,-9.76 6.311,-12.869 C 1.574,2.178 1.693,1.234 1.186,0.58 0.891,0.199 0.447,0 0,0"
             style="fill:#ffc52f;fill-opacity:1;fill-rule:nonzero;stroke:none;stroke-width:0.00257821"
             id="path2056" />
        </g>
        <g
           style="stroke-width:0.00257821"
           id="g2058"
           transform="translate(387.0518,349.0815)">
          <path
             d="m 0,0 c -0.284,0 -0.572,0.082 -0.827,0.25 -7.19,4.766 -11.481,12.754 -11.481,21.369 0,14.127 11.494,25.621 25.621,25.621 14.127,0 25.621,-11.494 25.621,-25.621 0,-8.615 -4.292,-16.603 -11.482,-21.369 -0.69,-0.457 -1.62,-0.27 -2.078,0.422 -0.458,0.689 -0.27,1.621 0.422,2.078 6.348,4.209 10.138,11.262 10.138,18.869 0,12.473 -10.148,22.621 -22.621,22.621 C 0.84,44.24 -9.308,34.092 -9.308,21.619 -9.308,14.014 -5.519,6.959 0.83,2.75 1.521,2.293 1.71,1.361 1.251,0.672 0.963,0.236 0.486,0 0,0"
             style="fill:#ffc52f;fill-opacity:1;fill-rule:nonzero;stroke:none;stroke-width:0.00257821"
             id="path2060" />
        </g>
      </g>
    </g>
  </g>
</svg>
