<?xml version="1.0" ?><svg viewBox="0 0 64 64" xmlns="http://www.w3.org/2000/svg"><title/><g data-name="Musical Note" id="Musical_Note"><path d="M21.25,27.452V10.3406c1.1875,1.5118,1.8335,4.1407,1.8335,7.5279a3.3958,3.3958,0,1,0,6.7915,0c0-5.9834-1.5542-10.4087-4.62-13.1519A10.5108,10.5108,0,0,0,17.48,2.0355,3.3918,3.3918,0,0,0,14.4585,5.41V19.2859a10.6194,10.6194,0,0,0-2.8335-.3808C6.3179,18.9051,2,22.7391,2,27.452s4.3179,8.5468,9.625,8.5468S21.25,32.1649,21.25,27.452Z" style="fill:#93b5e1"/><path d="M21.25,24.4489v3c0,4.72-4.32,8.55-9.63,8.55-5.3,0-9.62-3.83-9.62-8.55a7.4809,7.4809,0,0,1,.15-1.5c.8,4.01,4.75,7.05,9.47,7.05C16.93,32.9988,21.25,29.1688,21.25,24.4489Z" style="opacity:0.15"/><path d="M60.627,15.8035h-.0005a3.4315,3.4315,0,0,0-3.0171-.5385l-26.126,7.7412a3.4386,3.4386,0,0,0-2.4478,3.2783V45.1463a10.6937,10.6937,0,0,0-2.8706-.3877c-5.3535,0-9.7089,3.8672-9.7089,8.62s4.3554,8.62,9.7089,8.62,9.7085-3.8671,9.7085-8.62V28.8377l19.2881-5.7148V37.4051a10.6916,10.6916,0,0,0-2.8706-.3877c-5.3535,0-9.7085,3.8672-9.7085,8.62s4.355,8.62,9.7085,8.62S62,50.39,62,45.6375V18.5433A3.4357,3.4357,0,0,0,60.627,15.8035Z" style="fill:#848ccf"/><path d="M35.87,50.3788v3c0,4.75-4.35,8.62-9.7,8.62-5.36,0-9.71-3.87-9.71-8.62a7.4824,7.4824,0,0,1,.15-1.5c.8,4.04,4.78,7.12,9.56,7.12C31.52,58.9988,35.87,55.1288,35.87,50.3788Z" style="opacity:0.15"/><path d="M62,42.6389v3c0,4.75-4.36,8.62-9.71,8.62s-9.71-3.87-9.71-8.62a7.4809,7.4809,0,0,1,.15-1.5c.8,4.04,4.79,7.12,9.56,7.12C57.64,51.2588,62,47.3889,62,42.6389Z" style="opacity:0.15"/><path d="M21.25,27.4527V10.3414c1.1875,1.5117,1.8335,4.1406,1.8335,7.5278a3.3958,3.3958,0,1,0,6.7915,0c0-5.9834-1.5542-10.4086-4.62-13.1518A10.5107,10.5107,0,0,0,17.48,2.0362a3.3919,3.3919,0,0,0-3.021,3.3745v13.876a10.6194,10.6194,0,0,0-2.8335-.3808C6.3179,18.9059,2,22.74,2,27.4527S6.3179,36,11.625,36,21.25,32.1656,21.25,27.4527ZM11.625,34C7.42,34,4,31.0626,4,27.4527s3.42-6.5468,7.625-6.5468a8.5433,8.5433,0,0,1,3.4341.71,1,1,0,0,0,1.3994-.917V5.4107A1.3939,1.3939,0,0,1,17.7,4.024a8.4078,8.4078,0,0,1,6.2217,2.1836c2.6235,2.3477,3.9536,6.2715,3.9536,11.6616a1.3958,1.3958,0,1,1-2.7915,0c0-4.4975-1.0459-7.811-3.0239-9.581a5.8911,5.8911,0,0,0-1.3755-.9219,1,1,0,0,0-1.4341.9009V27.4527C19.25,31.0626,15.83,34,11.625,34Z" style="fill:#3282b8"/><path d="M60.627,15.8043h-.0005a3.4316,3.4316,0,0,0-3.0171-.5386l-26.126,7.7412a3.4387,3.4387,0,0,0-2.4478,3.2784V45.1471a10.6937,10.6937,0,0,0-2.8706-.3877c-5.3535,0-9.7089,3.8672-9.7089,8.62S20.8115,62,26.165,62s9.7085-3.8672,9.7085-8.62V28.8385l19.2881-5.7149V37.4059a10.6916,10.6916,0,0,0-2.8706-.3877c-5.3535,0-9.7085,3.8672-9.7085,8.62s4.355,8.62,9.7085,8.62S62,50.3912,62,45.6383V18.544A3.4357,3.4357,0,0,0,60.627,15.8043ZM60,45.6383c0,3.65-3.458,6.62-7.709,6.62s-7.7085-2.97-7.7085-6.62,3.458-6.62,7.7085-6.62a8.638,8.638,0,0,1,3.4712.7182,1,1,0,0,0,1.3994-.917V21.7843a1,1,0,0,0-1.2842-.959l-21.288,6.3076a1.0006,1.0006,0,0,0-.7159.959V53.38c0,3.65-3.458,6.62-7.7085,6.62s-7.7089-2.97-7.7089-6.62,3.458-6.62,7.7089-6.62a8.6416,8.6416,0,0,1,3.4712.7182,1,1,0,0,0,1.3994-.917V26.2853a1.4263,1.4263,0,0,1,1.0157-1.36l26.1279-7.7417A1.4189,1.4189,0,0,1,60,18.544Z" style="fill:#3282b8"/></g></svg>